<svg width="25" height="24" viewBox="0 0 25 24" fill="none" xmlns="http://www.w3.org/2000/svg">
<path d="M17.6183 15.3894C17.3434 15.7002 17.0549 16.0072 16.7532 16.3089C12.3904 20.6717 6.92448 22.2793 4.54477 19.8996C2.9133 18.2681 3.15592 15.1861 4.87562 12.0034M7.23305 8.65294C7.51915 8.32764 7.82012 8.00651 8.13548 7.69115C12.4983 3.32834 17.9642 1.72072 20.3439 4.10043C21.9765 5.73303 21.7324 8.81818 20.0095 12.0032M16.7532 7.69115C21.116 12.054 22.7236 17.5199 20.3439 19.8996C17.9642 22.2793 12.4983 20.6717 8.13548 16.3089C3.77267 11.946 2.16506 6.48015 4.54477 4.10043C6.92448 1.72072 12.3904 3.32834 16.7532 7.69115Z" stroke="#90A028" stroke-width="1.5" stroke-linecap="round" stroke-linejoin="round"/>
<path fill-rule="evenodd" clip-rule="evenodd" d="M10.6572 11.9785C10.6572 11.0034 11.4477 10.2129 12.4228 10.2129C13.398 10.2129 14.1884 11.0034 14.1884 11.9785C14.1884 12.9536 13.398 13.7441 12.4228 13.7441C11.4477 13.7441 10.6572 12.9536 10.6572 11.9785Z" fill="#90A028"/>
</svg>
