<svg width="1094" height="825" viewBox="0 0 1094 825" fill="none" xmlns="http://www.w3.org/2000/svg">
<g id="background 1">
<g id="logo-background">
<path id="Polygon 1" d="M669.112 454.58C670.037 455.17 670.037 456.52 669.112 457.11L545.079 536.133C544.081 536.769 542.773 536.052 542.773 534.868L542.796 376.786C542.796 375.602 544.104 374.885 545.103 375.521L669.112 454.58Z" fill="url(#paint0_linear_662_11)" fill-opacity="0.66"/>
<path id="Polygon 2" d="M920.107 457.132C919.211 456.539 919.211 455.223 920.107 454.63L1039.46 375.663C1040.46 375.003 1041.79 375.719 1041.79 376.914L1041.77 534.883C1041.77 536.078 1040.43 536.793 1039.44 536.133L920.107 457.132Z" fill="url(#paint1_linear_662_11)" fill-opacity="0.66"/>
<path id="Vector 9" d="M1017.73 101.108L799.364 242.582C799.299 242.624 799.215 242.625 799.149 242.583L575.241 101.053C575.232 101.048 575.222 101.043 575.212 101.038C565.038 96.733 559.501 96.317 550.035 101.034C550.027 101.039 550.018 101.044 550.009 101.05C546.448 103.552 545.346 105.355 544.425 109.03C544.421 109.046 544.419 109.062 544.419 109.079L544.401 234.788C544.401 234.814 544.406 234.84 544.416 234.864C547.969 243.642 551.884 247.563 561.202 253.302L779.616 394.899C779.626 394.905 779.636 394.91 779.646 394.914C792.62 400.545 800.27 400.73 813.224 394.919C813.233 394.915 813.242 394.91 813.25 394.905L1034.51 253.37C1045.62 247.384 1049.17 243.209 1051.31 234.925C1051.31 234.909 1051.31 234.892 1051.31 234.875L1051.33 109.162C1051.33 109.139 1051.33 109.115 1051.32 109.093C1050.17 105.964 1049.02 104.259 1045.75 101.133C1045.74 101.12 1045.72 101.108 1045.71 101.099C1034.78 95.58 1028.65 95.891 1017.73 101.108Z" fill="url(#paint2_linear_662_11)" fill-opacity="0.66"/>
</g>
<g id="" clip-path="url(#clip0_662_11)">
<path id="square1" d="M300 59H0V259H300V59Z" fill="#DAF439"/>
<path id="square2" d="M125 84H75V134H125V84Z" fill="#8E9F2F"/>
<path id="square3" d="M200 59H150V109H200V59Z" fill="#303510"/>
</g>
</g>
<defs>
<linearGradient id="paint0_linear_662_11" x1="671.097" y1="455.845" x2="500.014" y2="455.82" gradientUnits="userSpaceOnUse">
<stop stop-color="#DAF439" stop-opacity="0"/>
<stop offset="1" stop-color="#DAF439" stop-opacity="0.07"/>
</linearGradient>
<linearGradient id="paint1_linear_662_11" x1="918.217" y1="455.881" x2="1082.96" y2="455.905" gradientUnits="userSpaceOnUse">
<stop stop-color="#DAF439" stop-opacity="0"/>
<stop offset="1" stop-color="#DAF439" stop-opacity="0.07"/>
</linearGradient>
<linearGradient id="paint2_linear_662_11" x1="797.878" y1="97.043" x2="797.834" y2="399.208" gradientUnits="userSpaceOnUse">
<stop stop-color="#DAF439" stop-opacity="0"/>
<stop offset="1" stop-color="#DAF439" stop-opacity="0.07"/>
</linearGradient>
<clipPath id="clip0_662_11">
<rect width="600" height="300" fill="white" transform="translate(0 -81)"/>
</clipPath>
</defs>
</svg>
