<svg width="20" height="20" viewBox="0 0 20 20" fill="none" xmlns="http://www.w3.org/2000/svg">
<path d="M7.4 18C7.4 18.7732 6.7732 19.4 6 19.4C5.2268 19.4 4.6 18.7732 4.6 18C4.6 17.2268 5.2268 16.6 6 16.6C6.7732 16.6 7.4 17.2268 7.4 18ZM17.4 18C17.4 18.7732 16.7732 19.4 16 19.4C15.2268 19.4 14.6 18.7732 14.6 18C14.6 17.2268 15.2268 16.6 16 16.6C16.7732 16.6 17.4 17.2268 17.4 18Z" stroke="#DAF439" stroke-width="1.2"/>
<path d="M0 1H2.5L3.5 3M3.5 3H18.8277C18.9045 3 18.9526 3.08295 18.9145 3.14961L15 10H7L6.5 9M3.5 3L6.5 9M18 14H5.61803C4.87465 14 4.39116 13.2177 4.72361 12.5528L6.5 9" stroke="#DAF439" stroke-width="1.2"/>
</svg>
