<svg width="998" viewBox="0 0 998 170" fill="none" xmlns="http://www.w3.org/2000/svg">
<path d="M14.7 35.4H48.51L93.345 129.48L138.18 35.4H171.99V153H151.41V53.775L104.37 153H82.32L35.28 53.775V153H14.7V35.4ZM201.321 67.74H221.313V153H201.321V67.74ZM196.176 45.984C196.176 42.946 197.597 40.447 200.439 38.487C203.379 36.429 207.005 35.4 211.317 35.4C215.629 35.4 219.206 36.429 222.048 38.487C224.89 40.447 226.311 42.946 226.311 45.984C226.311 49.022 224.89 51.57 222.048 53.628C219.206 55.686 215.629 56.715 211.317 56.715C207.005 56.715 203.379 55.686 200.439 53.628C197.597 51.57 196.176 49.022 196.176 45.984ZM250.56 35.4H270.258V153H250.56V35.4ZM356.986 156.087C344.736 156.087 333.613 154.078 323.617 150.06C313.621 146.042 305.781 140.505 300.097 133.449C294.413 126.393 291.571 118.504 291.571 109.782C291.571 101.354 294.609 93.71 300.685 86.85C306.761 79.99 315.091 74.6 325.675 70.68C336.259 66.76 348.068 64.8 361.102 64.8C371.294 64.8 380.506 66.172 388.738 68.916C396.97 71.562 403.438 75.237 408.142 79.941C412.846 84.645 415.198 89.937 415.198 95.817C415.198 101.501 412.699 106.646 407.701 111.252C402.703 115.858 395.843 119.484 387.121 122.13C378.399 124.776 368.648 126.099 357.868 126.099C348.264 126.099 339.395 124.433 331.261 121.101C323.127 117.671 316.855 113.114 312.445 107.43C312.347 107.92 312.298 108.704 312.298 109.782C312.298 114.878 314.209 119.484 318.031 123.6C321.951 127.716 327.292 130.95 334.054 133.302C340.914 135.654 348.558 136.83 356.986 136.83C366.002 136.83 375.263 135.654 384.769 133.302C394.275 130.95 401.674 127.961 406.966 124.335V144.621C401.87 147.953 394.569 150.697 385.063 152.853C375.557 155.009 366.198 156.087 356.986 156.087ZM317.59 97.434C320.824 100.276 326.018 102.53 333.172 104.196C340.424 105.862 348.656 106.695 357.868 106.695C364.728 106.695 370.951 106.254 376.537 105.372C382.123 104.392 386.484 103.069 389.62 101.403C392.854 99.737 394.471 97.875 394.471 95.817C394.471 93.367 393.099 91.211 390.355 89.349C387.709 87.389 383.985 85.87 379.183 84.792C374.381 83.616 369.04 83.028 363.16 83.028C352.968 83.028 343.854 84.351 335.818 86.997C327.782 89.545 321.706 93.024 317.59 97.434ZM527.604 153V143.298L518.637 146.826C510.209 150.06 503.202 152.412 497.616 153.882C492.128 155.45 485.954 156.234 479.094 156.234C469.098 156.234 460.425 154.323 453.075 150.501C445.823 146.581 440.237 141.24 436.317 134.478C432.495 127.618 430.584 119.876 430.584 111.252C430.584 104.588 431.074 97.924 432.054 91.26C433.034 84.596 434.504 76.756 436.464 67.74H456.456C454.594 76.756 453.124 84.645 452.046 91.407C451.066 98.071 450.576 104.686 450.576 111.252C450.576 118.896 453.026 125.119 457.926 129.921C462.924 134.625 469.98 136.977 479.094 136.977C488.306 136.977 496.342 136.095 503.202 134.331C510.062 132.567 518.196 129.774 527.604 125.952V67.74H547.596V153H527.604ZM596.996 67.74V76.854C601.602 73.914 605.424 71.66 608.462 70.092C611.5 68.524 614.979 67.201 618.899 66.123C622.819 65.045 627.278 64.506 632.276 64.506C648.054 64.506 659.275 69.504 665.939 79.5C671.917 76.168 676.719 73.571 680.345 71.709C684.069 69.847 688.381 68.181 693.281 66.711C698.279 65.241 703.424 64.506 708.716 64.506C723.22 64.506 733.706 68.524 740.174 76.56C746.642 84.596 749.876 95.572 749.876 109.488V153H729.884V109.488C729.884 103.902 729.394 99.296 728.414 95.67C727.434 92.044 725.376 89.153 722.24 86.997C719.202 84.841 714.694 83.763 708.716 83.763C700.484 83.763 693.673 84.498 688.283 85.968C682.991 87.438 677.405 89.692 671.525 92.73C672.799 97.728 673.436 103.314 673.436 109.488V153H653.444V109.488C653.444 103.902 652.954 99.296 651.974 95.67C650.994 92.044 648.936 89.153 645.8 86.997C642.762 84.841 638.254 83.763 632.276 83.763C624.436 83.763 617.919 84.449 612.725 85.821C607.629 87.095 602.386 89.055 596.996 91.701V153H577.004V67.74H596.996Z" fill="white"/>
<path d="M813.032 55.7375C813.952 56.3277 813.952 57.6723 813.032 58.2625L797.06 68.5086C796.062 69.149 794.75 68.4321 794.75 67.246V46.754C794.75 45.5679 796.062 44.851 797.06 45.4914L813.032 55.7375Z" fill="url(#paint0_linear_412_26)"/>
<path d="M857.874 58.2484C856.983 57.6547 856.983 56.3453 857.874 55.7516L873.168 45.5629C874.165 44.8988 875.5 45.6134 875.5 46.8112V67.1888C875.5 68.3866 874.165 69.1012 873.168 68.4371L857.874 58.2484Z" fill="url(#paint1_linear_412_26)"/>
<path d="M869.696 0.640806L835.329 23.06C835.263 23.1029 835.178 23.1034 835.112 23.0613L799.876 0.649618C799.867 0.643753 799.857 0.638556 799.847 0.634284C798.253 -0.0424437 797.38 -0.107554 795.898 0.633974C795.889 0.638445 795.88 0.643812 795.872 0.649604C795.324 1.03875 795.149 1.32313 795.006 1.88992C795.002 1.90564 795 1.92201 795 1.93823V21.8547C795 21.8802 795.005 21.9059 795.015 21.9296C795.572 23.3026 796.192 23.923 797.652 24.8277L832.113 47.3083C832.122 47.3143 832.132 47.3197 832.143 47.3241C834.179 48.211 835.384 48.2397 837.417 47.3235C837.426 47.3195 837.435 47.3147 837.443 47.3094L872.348 24.8277C874.092 23.8815 874.656 23.2202 874.994 21.918C874.998 21.9018 875 21.8849 875 21.8682V1.94921C875 1.92579 874.996 1.90242 874.988 1.88047C874.811 1.40686 874.63 1.13776 874.138 0.661614C874.123 0.647929 874.107 0.636058 874.089 0.627174C872.379 -0.237339 871.412 -0.184672 869.696 0.640806Z" fill="url(#paint2_linear_412_26)"/>
<defs>
<linearGradient id="paint0_linear_412_26" x1="815" y1="57" x2="788" y2="57" gradientUnits="userSpaceOnUse">
<stop stop-color="#A3A3A3"/>
<stop offset="1" stop-color="#F8F8F8"/>
</linearGradient>
<linearGradient id="paint1_linear_412_26" x1="856" y1="57" x2="882" y2="57" gradientUnits="userSpaceOnUse">
<stop stop-color="#ACACAC"/>
<stop offset="1" stop-color="#939393"/>
</linearGradient>
<linearGradient id="paint2_linear_412_26" x1="835" y1="0" x2="835" y2="48" gradientUnits="userSpaceOnUse">
<stop stop-color="#D6D6D6"/>
<stop offset="0.0001" stop-color="#D6D6D6"/>
<stop offset="1" stop-color="white"/>
</linearGradient>
</defs>
</svg>
