<svg width="655" height="502" viewBox="0 0 655 502" fill="none" xmlns="http://www.w3.org/2000/svg">
<path d="M186.17 395.918C187.09 396.509 187.09 397.853 186.17 398.443L49.3445 486.217C48.3462 486.858 47.0346 486.141 47.0346 484.955L47.0346 309.407C47.0346 308.221 48.3462 307.504 49.3445 308.145L186.17 395.918Z" fill="url(#paint0_linear_315_26)"/>
<path d="M475.704 398.429C474.813 397.836 474.813 396.526 475.704 395.933L607.376 308.216C608.373 307.552 609.707 308.267 609.707 309.464V484.897C609.707 486.095 608.373 486.81 607.376 486.146L475.704 398.429Z" fill="url(#paint1_linear_315_26)"/>
<path d="M569.266 4.46519L329.148 161.104C329.082 161.147 328.997 161.148 328.931 161.106L82.6684 4.474C82.6592 4.46814 82.6493 4.46293 82.6392 4.45865C71.4492 -0.305643 65.3599 -0.766049 54.9499 4.45834C54.941 4.46282 54.9319 4.46823 54.9238 4.474C51.0062 7.24518 49.7946 9.24121 48.7826 13.3115C48.7787 13.3273 48.7766 13.3437 48.7766 13.36V152.516C48.7766 152.542 48.7817 152.567 48.7912 152.591C52.7004 162.31 57.006 166.65 67.2555 173.002L307.467 329.702C307.477 329.708 307.487 329.714 307.497 329.718C321.767 335.949 330.18 336.153 344.425 329.718C344.434 329.714 344.443 329.709 344.451 329.703L587.745 173.002C599.964 166.373 603.867 161.751 606.217 152.579C606.221 152.563 606.223 152.546 606.223 152.53V13.3709C606.223 13.3475 606.219 13.3239 606.211 13.3019C604.941 9.83549 603.686 7.94843 600.086 4.48611C600.071 4.47246 600.054 4.46042 600.037 4.45149C588.018 -1.65697 581.276 -1.31256 569.266 4.46519Z" fill="url(#paint2_linear_315_26)"/>
<defs>
<linearGradient id="paint0_linear_315_26" x1="188.138" y1="397.181" x2="1.52588e-05" y2="397.181" gradientUnits="userSpaceOnUse">
<stop stop-color="#A3A3A3"/>
<stop offset="1" stop-color="#F8F8F8"/>
</linearGradient>
<linearGradient id="paint1_linear_315_26" x1="473.83" y1="397.181" x2="655" y2="397.181" gradientUnits="userSpaceOnUse">
<stop stop-color="#ACACAC"/>
<stop offset="1" stop-color="#939393"/>
</linearGradient>
<linearGradient id="paint2_linear_315_26" x1="327.5" y1="0" x2="327.5" y2="334.468" gradientUnits="userSpaceOnUse">
<stop stop-color="#D6D6D6"/>
<stop offset="0.0001" stop-color="#D6D6D6"/>
<stop offset="1" stop-color="white"/>
</linearGradient>
</defs>
</svg>
