<svg width="407" height="318" viewBox="0 0 407 318" fill="none" xmlns="http://www.w3.org/2000/svg">
<path d="M115.384 246.481C116.304 247.071 116.304 248.416 115.384 249.006L31.648 302.723C30.6496 303.364 29.3381 302.647 29.3381 301.461L29.3381 194.027C29.3381 192.841 30.6496 192.124 31.648 192.764L115.384 246.481Z" fill="#0D0D0C"/>
<path d="M295.427 253.101C294.536 252.507 294.536 251.198 295.427 250.604L375.976 196.945C376.973 196.281 378.308 196.995 378.308 198.193V305.512C378.308 306.71 376.973 307.425 375.976 306.761L295.427 253.101Z" fill="#0D0D0C"/>
<path d="M354.658 2.78518L204.924 100.463C204.858 100.506 204.773 100.507 204.707 100.464L51.1454 2.794C51.1362 2.78813 51.1263 2.78293 51.1162 2.77865C44.1419 -0.190022 40.3441 -0.476777 33.8557 2.77834C33.8468 2.78282 33.8378 2.78822 33.8296 2.794C31.3926 4.51876 30.6364 5.76292 30.006 8.2941C30.002 8.30984 30 8.32631 30 8.34253V95.1182C30 95.1437 30.0051 95.1695 30.0146 95.1932C32.4515 101.246 35.1379 103.952 41.5263 107.911L191.354 205.65C191.364 205.656 191.374 205.662 191.384 205.666C200.28 209.549 205.527 209.676 214.407 205.665C214.416 205.661 214.425 205.657 214.433 205.651L366.184 107.911C373.802 103.778 376.238 100.896 377.704 95.1815C377.708 95.1653 377.71 95.1484 377.71 95.1317V8.35352C377.71 8.3301 377.706 8.30651 377.698 8.28452C376.908 6.13297 376.125 4.95653 373.89 2.80609C373.876 2.79244 373.859 2.78041 373.841 2.7715C366.351 -1.03335 362.146 -0.817091 354.658 2.78518Z" fill="#0D0D0C"/>
</svg>
