<svg width="420" height="367" viewBox="0 0 420 367" fill="none" xmlns="http://www.w3.org/2000/svg">
<g clip-path="url(#clip0_85_15)">
<path d="M334.89 57.9755L139.494 42.5975C132.062 42.0125 124.455 47.3721 122.506 54.5685L47.7122 330.616C45.7624 337.812 50.2072 344.12 57.6401 344.705L253.036 360.083C260.469 360.668 268.075 355.308 270.025 348.112L344.818 72.0649C346.768 64.8685 342.323 58.5605 334.89 57.9755Z" fill="url(#paint0_linear_85_15)" stroke="url(#paint1_linear_85_15)"/>
<path d="M118.689 70.5335L340.005 87.9515" stroke="white" stroke-opacity="0.07"/>
<path d="M132.663 60.2968C133.764 60.3835 134.891 59.5894 135.179 58.5233C135.468 57.4572 134.81 56.5227 133.709 56.436C132.607 56.3493 131.481 57.1434 131.192 58.2095C130.903 59.2756 131.561 60.2101 132.663 60.2968Z" fill="#5E604F"/>
<path d="M141.635 61.0029C142.736 61.0896 143.863 60.2956 144.152 59.2295C144.441 58.1633 143.782 57.2288 142.681 57.1421C141.58 57.0555 140.453 57.8495 140.164 58.9156C139.875 59.9818 140.534 60.9163 141.635 61.0029Z" fill="#5E604F"/>
<path d="M150.607 61.7091C151.708 61.7957 152.835 61.0017 153.124 59.9356C153.413 58.8695 152.754 57.9349 151.653 57.8483C150.552 57.7616 149.425 58.5556 149.136 59.6217C148.847 60.6879 149.506 61.6224 150.607 61.7091Z" fill="#5E604F"/>
<g filter="url(#filter0_d_85_15)">
<path d="M279.652 36.377C280.374 33.7117 283.191 31.7267 285.944 31.9433L319.839 34.6109C322.592 34.8275 324.238 37.1639 323.516 39.8292L314.625 72.646C313.902 75.3113 311.085 77.2963 308.332 77.0797L274.437 74.4121C271.685 74.1954 270.038 71.8591 270.76 69.1938L279.652 36.377Z" fill="white" fill-opacity="0.15"/>
<mask id="mask0_85_15" style="mask-type:luminance" maskUnits="userSpaceOnUse" x="269" y="30" width="56" height="49">
<path d="M279.652 36.377C280.374 33.7117 283.191 31.7267 285.944 31.9433L319.839 34.6109C322.592 34.8275 324.238 37.1639 323.516 39.8292L314.625 72.646C313.902 75.3113 311.085 77.2963 308.332 77.0797L274.437 74.4121C271.685 74.1954 270.038 71.8591 270.76 69.1938L279.652 36.377Z" stroke="white" stroke-opacity="0.07" stroke-width="2"/>
</mask>
<g mask="url(#mask0_85_15)">
<path d="M279.652 36.377C280.374 33.7117 283.191 31.7267 285.944 31.9433L319.839 34.6109C322.592 34.8275 324.238 37.1639 323.516 39.8292L314.625 72.646C313.902 75.3113 311.085 77.2963 308.332 77.0797L274.437 74.4121C271.685 74.1954 270.038 71.8591 270.76 69.1938L279.652 36.377Z" stroke="white" stroke-opacity="0.07" stroke-width="2"/>
</g>
</g>
<path d="M288.981 67.7799C291.467 67.9756 294.014 66.1805 294.666 63.7731L295.848 59.4119L291.344 59.0574C288.857 58.8617 286.31 60.6567 285.657 63.0641C285.005 65.4715 286.493 67.5842 288.981 67.7799Z" fill="#ADADAD"/>
<path d="M288.021 54.3415C288.673 51.9341 291.22 50.1391 293.707 50.3348L298.211 50.6893L295.848 59.4118L291.344 59.0573C288.857 58.8616 287.368 56.7489 288.021 54.3415Z" fill="#ADADAD"/>
<path d="M290.384 45.619C291.036 43.2116 293.583 41.4166 296.071 41.6123L300.575 41.9668L298.211 50.6893L293.707 50.3348C291.22 50.1391 289.732 48.0264 290.384 45.619Z" fill="#ADADAD"/>
<path d="M300.575 41.9668L305.08 42.3214C307.566 42.517 309.054 44.6297 308.402 47.0371C307.75 49.4445 305.203 51.2395 302.716 51.0439L298.211 50.6893L300.575 41.9668Z" fill="#ADADAD"/>
<path d="M306.039 55.7596C305.387 58.167 302.839 59.962 300.353 59.7664C297.866 59.5706 296.377 57.458 297.03 55.0506C297.682 52.6432 300.229 50.8481 302.716 51.0439C305.203 51.2395 306.691 53.3522 306.039 55.7596Z" fill="#ADADAD"/>
<g filter="url(#filter1_d_85_15)">
<path d="M217.365 149.769C218.087 147.104 220.905 145.118 223.658 145.335L257.553 148.003C260.305 148.219 261.952 150.556 261.23 153.221L252.338 186.038C251.616 188.703 248.799 190.688 246.046 190.471L212.151 187.804C209.398 187.587 207.752 185.25 208.474 182.585L217.365 149.769Z" fill="white" fill-opacity="0.15"/>
<mask id="mask1_85_15" style="mask-type:luminance" maskUnits="userSpaceOnUse" x="207" y="144" width="56" height="48">
<path d="M217.365 149.769C218.087 147.104 220.905 145.118 223.658 145.335L257.553 148.003C260.305 148.219 261.952 150.556 261.23 153.221L252.338 186.038C251.616 188.703 248.799 190.688 246.046 190.471L212.151 187.804C209.398 187.587 207.752 185.25 208.474 182.585L217.365 149.769Z" stroke="white" stroke-opacity="0.07" stroke-width="2"/>
</mask>
<g mask="url(#mask1_85_15)">
<path d="M217.365 149.769C218.087 147.104 220.905 145.118 223.658 145.335L257.553 148.003C260.305 148.219 261.952 150.556 261.23 153.221L252.338 186.038C251.616 188.703 248.799 190.688 246.046 190.471L212.151 187.804C209.398 187.587 207.752 185.25 208.474 182.585L217.365 149.769Z" stroke="white" stroke-opacity="0.07" stroke-width="2"/>
</g>
</g>
<path d="M233.874 170.452C235.384 170.571 236.93 169.482 237.326 168.021C237.722 166.559 236.819 165.277 235.308 165.158C233.798 165.039 232.253 166.128 231.857 167.591C231.461 169.052 232.364 170.333 233.874 170.452Z" fill="#ADADAD"/>
<path fill-rule="evenodd" clip-rule="evenodd" d="M222.118 165.4C221.352 165.891 221.019 166.348 220.915 166.729C220.812 167.11 220.89 167.599 221.362 168.189C221.835 168.778 222.642 169.385 223.776 169.95C226.04 171.078 229.42 171.952 233.383 172.264C237.345 172.576 241.048 172.259 243.815 171.528C245.203 171.161 246.299 170.704 247.064 170.212C247.83 169.719 248.163 169.262 248.266 168.882C248.369 168.501 248.293 168.012 247.82 167.422C247.348 166.832 246.54 166.226 245.405 165.66C243.142 164.533 239.761 163.658 235.799 163.347C231.837 163.035 228.133 163.351 225.366 164.083C223.979 164.45 222.884 164.907 222.118 165.4ZM225.144 162.224C228.219 161.41 232.181 161.09 236.322 161.416C240.464 161.742 244.089 162.659 246.604 163.913C247.859 164.538 248.883 165.269 249.544 166.094C250.205 166.919 250.563 167.921 250.26 169.039C249.957 170.156 249.083 171.061 248.012 171.749C246.941 172.438 245.572 172.981 244.038 173.386C240.962 174.2 237.001 174.52 232.86 174.194C228.719 173.868 225.092 172.951 222.577 171.697C221.323 171.072 220.298 170.341 219.638 169.516C218.977 168.691 218.619 167.689 218.922 166.573C219.224 165.455 220.099 164.55 221.17 163.861C222.241 163.173 223.61 162.63 225.144 162.224Z" fill="#ADADAD"/>
<path fill-rule="evenodd" clip-rule="evenodd" d="M232.521 155.925C231.794 155.614 231.252 155.638 230.86 155.801C230.468 155.964 230.037 156.347 229.649 157.123C229.26 157.899 228.972 158.964 228.836 160.27C228.564 162.878 228.918 166.243 229.999 169.721C231.079 173.199 232.659 176.053 234.302 177.861C235.127 178.767 235.935 179.374 236.661 179.686C237.387 179.997 237.93 179.974 238.321 179.809C238.714 179.646 239.145 179.263 239.533 178.487C239.921 177.711 240.209 176.648 240.346 175.341C240.618 172.733 240.264 169.368 239.183 165.89C238.102 162.412 236.522 159.558 234.879 157.75C234.055 156.843 233.247 156.236 232.521 155.925ZM236.542 156.351C238.369 158.361 240.041 161.425 241.171 165.061C242.301 168.695 242.699 172.292 242.398 175.19C242.246 176.635 241.917 177.959 241.374 179.044C240.831 180.129 240.016 181.08 238.865 181.56C237.715 182.04 236.564 181.909 235.549 181.474C234.534 181.039 233.551 180.262 232.639 179.26C230.813 177.25 229.14 174.186 228.01 170.55C226.881 166.915 226.483 163.318 226.784 160.421C226.935 158.976 227.265 157.651 227.808 156.566C228.35 155.481 229.165 154.53 230.316 154.051C231.466 153.571 232.617 153.702 233.633 154.136C234.648 154.571 235.631 155.348 236.542 156.351Z" fill="#ADADAD"/>
<path fill-rule="evenodd" clip-rule="evenodd" d="M244.995 158.331C245.035 157.528 244.824 157.094 244.535 156.877C244.246 156.66 243.738 156.554 242.878 156.74C242.017 156.927 240.921 157.383 239.65 158.125C237.115 159.606 234.088 162.096 231.207 165.262C228.326 168.429 226.202 171.598 225.078 174.139C224.515 175.413 224.227 176.476 224.187 177.28C224.148 178.083 224.357 178.516 224.647 178.733C224.935 178.951 225.443 179.057 226.305 178.871C227.166 178.685 228.261 178.227 229.532 177.485C232.066 176.006 235.094 173.515 237.975 170.348C240.856 167.183 242.98 164.012 244.103 161.473C244.666 160.199 244.956 159.134 244.995 158.331ZM245.99 161.932C244.741 164.755 242.451 168.14 239.44 171.449C236.429 174.759 233.2 177.438 230.383 179.082C228.978 179.902 227.624 180.495 226.42 180.756C225.216 181.016 224.044 180.964 223.197 180.326C222.348 179.69 222.073 178.653 222.128 177.53C222.183 176.406 222.57 175.086 223.193 173.678C224.44 170.855 226.73 167.47 229.741 164.161C232.753 160.851 235.981 158.173 238.798 156.528C240.204 155.708 241.558 155.115 242.761 154.855C243.965 154.595 245.137 154.647 245.985 155.284C246.833 155.921 247.109 156.958 247.053 158.081C246.998 159.204 246.612 160.525 245.99 161.932Z" fill="#ADADAD"/>
<g filter="url(#filter2_d_85_15)">
<path d="M105.953 241.55C106.675 238.885 109.492 236.9 112.245 237.116L146.14 239.784C148.893 240 150.539 242.337 149.817 245.002L140.926 277.819C140.204 280.484 137.386 282.469 134.634 282.253L100.738 279.585C97.9855 279.368 96.3393 277.032 97.0614 274.367L105.953 241.55Z" fill="white" fill-opacity="0.15"/>
<mask id="mask2_85_15" style="mask-type:luminance" maskUnits="userSpaceOnUse" x="95" y="236" width="57" height="48">
<path d="M105.953 241.55C106.675 238.885 109.492 236.9 112.245 237.116L146.14 239.784C148.893 240 150.539 242.337 149.817 245.002L140.926 277.819C140.204 280.484 137.386 282.469 134.634 282.253L100.738 279.585C97.9855 279.368 96.3393 277.032 97.0614 274.367L105.953 241.55Z" stroke="white" stroke-opacity="0.07" stroke-width="2"/>
</mask>
<g mask="url(#mask2_85_15)">
<path d="M105.953 241.55C106.675 238.885 109.492 236.9 112.245 237.116L146.14 239.784C148.893 240 150.539 242.337 149.817 245.002L140.926 277.819C140.204 280.484 137.386 282.469 134.634 282.253L100.738 279.585C97.9855 279.368 96.3393 277.032 97.0614 274.367L105.953 241.55Z" stroke="white" stroke-opacity="0.07" stroke-width="2"/>
</g>
</g>
<path fill-rule="evenodd" clip-rule="evenodd" d="M110.349 259.147C108.399 266.343 112.844 272.652 120.276 273.236C127.709 273.821 135.316 268.461 137.265 261.265C139.215 254.07 134.769 247.761 127.337 247.176C119.905 246.591 112.298 251.952 110.349 259.147ZM121.913 254.512L119.67 254.336L116.728 265.194L118.971 265.371L121.913 254.512ZM124.156 254.689L130.884 255.218L130.295 257.39L123.567 256.86L124.156 254.689ZM129.707 259.561L122.979 259.031L122.391 261.203L129.119 261.732L129.707 259.561ZM121.802 263.375L128.53 263.905L127.942 266.077L121.214 265.547L121.802 263.375Z" fill="#ADADAD"/>
<g filter="url(#filter3_d_85_15)">
<path d="M288.603 198.75C289.325 196.085 292.143 194.099 294.895 194.316L328.79 196.983C331.543 197.2 333.189 199.537 332.467 202.202L323.576 235.019C322.854 237.683 320.036 239.669 317.284 239.452L283.388 236.785C280.636 236.568 278.989 234.231 279.711 231.566L288.603 198.75Z" fill="white" fill-opacity="0.15"/>
<mask id="mask3_85_15" style="mask-type:luminance" maskUnits="userSpaceOnUse" x="278" y="193" width="56" height="48">
<path d="M288.603 198.75C289.325 196.085 292.143 194.099 294.895 194.316L328.79 196.983C331.543 197.2 333.189 199.537 332.467 202.202L323.576 235.019C322.854 237.683 320.036 239.669 317.284 239.452L283.388 236.785C280.636 236.568 278.989 234.231 279.711 231.566L288.603 198.75Z" stroke="white" stroke-opacity="0.07" stroke-width="2"/>
</mask>
<g mask="url(#mask3_85_15)">
<path d="M288.603 198.75C289.325 196.085 292.143 194.099 294.895 194.316L328.79 196.983C331.543 197.2 333.189 199.537 332.467 202.202L323.576 235.019C322.854 237.683 320.036 239.669 317.284 239.452L283.388 236.785C280.636 236.568 278.989 234.231 279.711 231.566L288.603 198.75Z" stroke="white" stroke-opacity="0.07" stroke-width="2"/>
</g>
</g>
<path d="M292.459 215.373C291.078 220.472 292.945 225.118 296.816 227.555L295.032 210.221C293.823 211.811 292.947 213.567 292.459 215.373ZM314.919 216.477C315.351 214.885 315.059 213.736 314.785 212.838C314.398 211.724 314.01 210.776 314.298 209.715C314.619 208.53 315.844 207.502 317.15 207.605C317.209 207.61 317.263 207.621 317.32 207.628C315.522 205.343 312.716 203.813 309.253 203.54C304.605 203.174 299.89 205.161 296.564 208.471C296.874 208.504 297.166 208.534 297.416 208.554C298.808 208.663 301.006 208.669 301.006 208.669C301.735 208.685 301.542 209.711 300.804 209.737C300.804 209.737 300.061 209.762 299.247 209.74L300.312 224.072L305.515 215.848L304.931 210.187C304.226 210.089 303.57 209.954 303.57 209.954C302.864 209.857 303.235 208.803 303.941 208.9C303.941 208.9 306.093 209.237 307.4 209.34C308.792 209.449 310.991 209.455 310.991 209.455C311.719 209.47 311.527 210.496 310.788 210.522C310.788 210.522 310.044 210.547 309.232 210.526L310.288 224.75L312.778 220.561C313.836 218.825 314.621 217.579 314.919 216.477Z" fill="#ADADAD"/>
<path d="M305.691 217.564L298.657 228.48C299.783 228.924 301 229.2 302.273 229.3C303.822 229.422 305.378 229.28 306.888 228.918C306.866 228.859 306.851 228.797 306.842 228.733L305.691 217.564ZM319.11 211.159C319.056 211.574 318.97 212.017 318.841 212.49C318.487 213.797 317.837 215.247 316.579 217.024L309.434 228.08C313.993 226.158 317.778 222.218 319.066 217.467C319.654 215.307 319.67 213.137 319.11 211.159Z" fill="#ADADAD"/>
<path d="M309.831 201.406C301.28 200.733 292.498 206.921 290.255 215.199C288.012 223.479 293.143 230.761 301.695 231.434C310.245 232.107 319.028 225.921 321.271 217.64C323.514 209.362 318.381 202.079 309.831 201.406ZM301.881 230.746C293.723 230.104 288.825 223.155 290.966 215.255C293.106 207.357 301.485 201.453 309.644 202.095C317.802 202.737 322.698 209.686 320.558 217.584C318.418 225.484 310.039 231.388 301.881 230.746Z" fill="#ADADAD"/>
<g filter="url(#filter4_d_85_15)">
<path d="M71.3083 158.975C72.0303 156.31 74.8475 154.325 77.6004 154.541L111.496 157.209C114.248 157.426 115.895 159.762 115.173 162.427L106.281 195.244C105.559 197.909 102.742 199.894 99.9889 199.678L66.0937 197.01C63.3409 196.794 61.6947 194.457 62.4167 191.792L71.3083 158.975Z" fill="white" fill-opacity="0.15"/>
<mask id="mask4_85_15" style="mask-type:luminance" maskUnits="userSpaceOnUse" x="61" y="153" width="56" height="48">
<path d="M71.3083 158.975C72.0303 156.31 74.8475 154.325 77.6004 154.541L111.496 157.209C114.248 157.426 115.895 159.762 115.173 162.427L106.281 195.244C105.559 197.909 102.742 199.894 99.9889 199.678L66.0937 197.01C63.3409 196.794 61.6947 194.457 62.4167 191.792L71.3083 158.975Z" stroke="white" stroke-opacity="0.07" stroke-width="2"/>
</mask>
<g mask="url(#mask4_85_15)">
<path d="M71.3083 158.975C72.0303 156.31 74.8475 154.325 77.6004 154.541L111.496 157.209C114.248 157.426 115.895 159.762 115.173 162.427L106.281 195.244C105.559 197.909 102.742 199.894 99.9889 199.678L66.0937 197.01C63.3409 196.794 61.6947 194.457 62.4167 191.792L71.3083 158.975Z" stroke="white" stroke-opacity="0.07" stroke-width="2"/>
</g>
</g>
<path d="M105.416 164.617L79.496 162.577C78.9454 162.534 78.3819 162.931 78.2375 163.464L71.4381 188.559C71.2938 189.092 71.6229 189.559 72.1735 189.602L98.0934 191.642C98.644 191.686 99.2075 191.288 99.3518 190.756L106.151 165.66C106.296 165.128 105.966 164.66 105.416 164.617Z" fill="#ADADAD"/>
<path d="M92.1174 185.65C92.4149 186.504 92.9267 187.156 94.1186 187.249C95.1199 187.328 95.89 186.897 96.0702 186.232C96.2865 185.434 95.7057 185.1 94.7293 184.549L94.193 184.252C92.643 183.399 91.7272 182.412 92.2403 180.519C92.7129 178.774 94.4536 177.555 96.6117 177.725C98.1481 177.846 99.1133 178.447 99.5439 179.858L97.3473 180.872C97.1265 180.125 96.7559 179.808 96.062 179.754C95.3542 179.698 94.7887 180.094 94.6357 180.659C94.4466 181.357 94.819 181.675 95.7386 182.189L96.2753 182.485C98.0989 183.494 99.0241 184.449 98.4977 186.392C97.9304 188.486 95.9104 189.499 93.6152 189.318C91.3709 189.142 90.2001 187.998 89.856 186.594L92.1174 185.65ZM83.5262 185.18C83.7304 185.857 83.9272 186.433 84.7575 186.498C85.5513 186.56 86.1333 186.301 86.4481 185.138L88.591 177.23L91.0075 177.42L88.8563 185.36C88.2036 187.769 86.4394 188.75 84.298 188.581C82.3632 188.429 81.504 187.376 81.2488 186.171L83.5262 185.18Z" fill="black"/>
</g>
<defs>
<filter id="filter0_d_85_15" x="248.559" y="13.9587" width="115.157" height="107.106" filterUnits="userSpaceOnUse" color-interpolation-filters="sRGB">
<feFlood flood-opacity="0" result="BackgroundImageFix"/>
<feColorMatrix in="SourceAlpha" type="matrix" values="0 0 0 0 0 0 0 0 0 0 0 0 0 0 0 0 0 0 127 0" result="hardAlpha"/>
<feOffset dx="9" dy="13"/>
<feGaussianBlur stdDeviation="15"/>
<feComposite in2="hardAlpha" operator="out"/>
<feColorMatrix type="matrix" values="0 0 0 0 0 0 0 0 0 0 0 0 0 0 0 0 0 0 0.25 0"/>
<feBlend mode="normal" in2="BackgroundImageFix" result="effect1_dropShadow_85_15"/>
<feBlend mode="normal" in="SourceGraphic" in2="effect1_dropShadow_85_15" result="shape"/>
</filter>
<filter id="filter1_d_85_15" x="186.273" y="127.35" width="115.157" height="107.106" filterUnits="userSpaceOnUse" color-interpolation-filters="sRGB">
<feFlood flood-opacity="0" result="BackgroundImageFix"/>
<feColorMatrix in="SourceAlpha" type="matrix" values="0 0 0 0 0 0 0 0 0 0 0 0 0 0 0 0 0 0 127 0" result="hardAlpha"/>
<feOffset dx="9" dy="13"/>
<feGaussianBlur stdDeviation="15"/>
<feComposite in2="hardAlpha" operator="out"/>
<feColorMatrix type="matrix" values="0 0 0 0 0 0 0 0 0 0 0 0 0 0 0 0 0 0 0.25 0"/>
<feBlend mode="normal" in2="BackgroundImageFix" result="effect1_dropShadow_85_15"/>
<feBlend mode="normal" in="SourceGraphic" in2="effect1_dropShadow_85_15" result="shape"/>
</filter>
<filter id="filter2_d_85_15" x="74.8606" y="219.132" width="115.157" height="107.106" filterUnits="userSpaceOnUse" color-interpolation-filters="sRGB">
<feFlood flood-opacity="0" result="BackgroundImageFix"/>
<feColorMatrix in="SourceAlpha" type="matrix" values="0 0 0 0 0 0 0 0 0 0 0 0 0 0 0 0 0 0 127 0" result="hardAlpha"/>
<feOffset dx="9" dy="13"/>
<feGaussianBlur stdDeviation="15"/>
<feComposite in2="hardAlpha" operator="out"/>
<feColorMatrix type="matrix" values="0 0 0 0 0 0 0 0 0 0 0 0 0 0 0 0 0 0 0.25 0"/>
<feBlend mode="normal" in2="BackgroundImageFix" result="effect1_dropShadow_85_15"/>
<feBlend mode="normal" in="SourceGraphic" in2="effect1_dropShadow_85_15" result="shape"/>
</filter>
<filter id="filter3_d_85_15" x="257.511" y="176.331" width="115.157" height="107.106" filterUnits="userSpaceOnUse" color-interpolation-filters="sRGB">
<feFlood flood-opacity="0" result="BackgroundImageFix"/>
<feColorMatrix in="SourceAlpha" type="matrix" values="0 0 0 0 0 0 0 0 0 0 0 0 0 0 0 0 0 0 127 0" result="hardAlpha"/>
<feOffset dx="9" dy="13"/>
<feGaussianBlur stdDeviation="15"/>
<feComposite in2="hardAlpha" operator="out"/>
<feColorMatrix type="matrix" values="0 0 0 0 0 0 0 0 0 0 0 0 0 0 0 0 0 0 0.25 0"/>
<feBlend mode="normal" in2="BackgroundImageFix" result="effect1_dropShadow_85_15"/>
<feBlend mode="normal" in="SourceGraphic" in2="effect1_dropShadow_85_15" result="shape"/>
</filter>
<filter id="filter4_d_85_15" x="40.216" y="136.557" width="115.157" height="107.106" filterUnits="userSpaceOnUse" color-interpolation-filters="sRGB">
<feFlood flood-opacity="0" result="BackgroundImageFix"/>
<feColorMatrix in="SourceAlpha" type="matrix" values="0 0 0 0 0 0 0 0 0 0 0 0 0 0 0 0 0 0 127 0" result="hardAlpha"/>
<feOffset dx="9" dy="13"/>
<feGaussianBlur stdDeviation="15"/>
<feComposite in2="hardAlpha" operator="out"/>
<feColorMatrix type="matrix" values="0 0 0 0 0 0 0 0 0 0 0 0 0 0 0 0 0 0 0.25 0"/>
<feBlend mode="normal" in2="BackgroundImageFix" result="effect1_dropShadow_85_15"/>
<feBlend mode="normal" in="SourceGraphic" in2="effect1_dropShadow_85_15" result="shape"/>
</filter>
<linearGradient id="paint0_linear_85_15" x1="237.323" y1="49.8039" x2="220.36" y2="265.341" gradientUnits="userSpaceOnUse">
<stop stop-color="#DAF439" stop-opacity="0.09"/>
<stop offset="1" stop-color="#13140E" stop-opacity="0"/>
</linearGradient>
<linearGradient id="paint1_linear_85_15" x1="216.156" y1="146.716" x2="196.88" y2="391.644" gradientUnits="userSpaceOnUse">
<stop stop-color="white" stop-opacity="0.29"/>
<stop offset="1" stop-opacity="0"/>
</linearGradient>
<clipPath id="clip0_85_15">
<rect width="328" height="353" fill="white" transform="matrix(0.996917 0.0784591 -0.261515 0.965199 93 0)"/>
</clipPath>
</defs>
</svg>
