<svg width="16" height="20" viewBox="0 0 16 20" fill="none" xmlns="http://www.w3.org/2000/svg">
<path d="M14 19L2 19C1.44771 19 0.999999 18.5523 0.999999 18L1 2C1 1.44771 1.44772 0.999999 2 0.999999L14 1C14.5523 1 15 1.44772 15 2L15 18C15 18.5523 14.5523 19 14 19Z" stroke="#DAF439" stroke-width="1.2"/>
<path d="M6 7C4.89543 7 4 7.92175 4 9.05878C4 9.52225 4.03019 10.0851 4.54268 10.7006C5.05517 11.3161 8 14 8 14C8 14 10.9448 11.3161 11.4573 10.7006C11.9698 10.0851 12 9.52225 12 9.05878C12 7.92175 11.1046 7 10 7C8.89543 7 8 7.92175 8 9.05878C8 7.92175 7.10457 7 6 7Z" stroke="#DAF439" stroke-width="1.2"/>
</svg>
