<svg class="page-stack"  viewBox="0 0 1002 467" fill="none" xmlns="http://www.w3.org/2000/svg">
<g id="page-stacks">
  <defs>
    <filter id="blur">
      <feGaussianBlur stdDeviation="5" />
    </filter>
  </defs>
<rect id="page-2" x="63.5" y="63.5" width="857.301" height="403" rx="13.5" fill="url(#paint0_linear_682_14)" stroke="url(#paint1_linear_682_14)"/>
<line id="border-window" x1="64" y1="102.5" x2="920.3" y2="102.5" stroke="white" stroke-opacity="0.07"/>
<g id="all">
<g id="stack5">
<g id="screnn_background" filter="url(#filter0_bd_682_14)">
<mask id="path-3-inside-1_682_14" fill="white">
<path d="M513 167C513 164.239 515.239 162 518 162H599.776C602.538 162 604.776 164.239 604.776 167V248.776C604.776 251.538 602.538 253.776 599.776 253.776H518C515.239 253.776 513 251.538 513 248.776V167Z"/>
</mask>
<path d="M513 167C513 164.239 515.239 162 518 162H599.776C602.538 162 604.776 164.239 604.776 167V248.776C604.776 251.538 602.538 253.776 599.776 253.776H518C515.239 253.776 513 251.538 513 248.776V167Z" fill="white" fill-opacity="0.15" shape-rendering="crispEdges"/>
<path d="M513 167C513 164.239 515.239 162 518 162H599.776C602.538 162 604.776 164.239 604.776 167V248.776C604.776 251.538 602.538 253.776 599.776 253.776H518C515.239 253.776 513 251.538 513 248.776V167Z" stroke="white" stroke-opacity="0.07" stroke-width="2" shape-rendering="crispEdges" mask="url(#path-3-inside-1_682_14)"/>
</g>
<g id="Group 84">
<path id="Vector" d="M549.541 237.321C554.743 237.321 558.965 233.099 558.965 227.896V218.472H549.541C544.338 218.472 540.116 222.694 540.116 227.896C540.116 233.099 544.338 237.321 549.541 237.321Z" fill="#ADADAD"/>
<path id="Vector_2" d="M540.116 209.047C540.116 203.844 544.338 199.622 549.541 199.622H558.965V218.472H549.541C544.338 218.472 540.116 214.249 540.116 209.047Z" fill="#ADADAD"/>
<path id="Vector_3" d="M540.116 190.197C540.116 184.995 544.338 180.772 549.541 180.772H558.965V199.622H549.541C544.338 199.622 540.116 195.4 540.116 190.197Z" fill="#ADADAD"/>
<path id="Vector_4" d="M558.965 180.772H568.39C573.593 180.772 577.815 184.995 577.815 190.197C577.815 195.4 573.593 199.622 568.39 199.622H558.965V180.772Z" fill="#ADADAD"/>
<path id="Vector_5" d="M577.815 209.047C577.815 214.249 573.593 218.472 568.39 218.472C563.188 218.472 558.965 214.249 558.965 209.047C558.965 203.844 563.188 199.622 568.39 199.622C573.593 199.622 577.815 203.844 577.815 209.047Z" fill="#ADADAD"/>
</g>
</g>
<g id="stack4" >
<g id="screnn_background_2">
<mask id="path-9-inside-2_682_14" fill="white">
<path d="M302 22C302 19.2386 304.239 17 307 17H388.776C391.538 17 393.776 19.2386 393.776 22V103.776C393.776 106.538 391.538 108.776 388.776 108.776H307C304.239 108.776 302 106.538 302 103.776V22Z"/>
</mask>
<path d="M302 22C302 19.2386 304.239 17 307 17H388.776C391.538 17 393.776 19.2386 393.776 22V103.776C393.776 106.538 391.538 108.776 388.776 108.776H307C304.239 108.776 302 106.538 302 103.776V22Z" fill="white" fill-opacity="0.15" shape-rendering="crispEdges"/>
<path d="M302 22C302 19.2386 304.239 17 307 17H388.776C391.538 17 393.776 19.2386 393.776 22V103.776C393.776 106.538 391.538 108.776 388.776 108.776H307C304.239 108.776 302 106.538 302 103.776V22Z" stroke="white" stroke-opacity="0.07" stroke-width="2" shape-rendering="crispEdges" mask="url(#path-9-inside-2_682_14)"/>
</g>
<g id="Group 70">
<path id="Vector_6" d="M347.299 68.4456C350.459 68.4456 353.02 65.8842 353.02 62.7245C353.02 59.5649 350.459 57.0035 347.299 57.0035C344.139 57.0035 341.578 59.5649 341.578 62.7245C341.578 65.8842 344.139 68.4456 347.299 68.4456Z" fill="#ADADAD"/>
<g id="Group">
<path id="Vector (Stroke)" fill-rule="evenodd" clip-rule="evenodd" d="M320.411 59.7104C319.115 60.8799 318.687 61.902 318.687 62.7245C318.687 63.547 319.115 64.5691 320.411 65.7386C321.706 66.908 323.698 68.0566 326.336 69.064C331.599 71.0733 339.009 72.3599 347.299 72.3599C355.589 72.3599 362.999 71.0733 368.262 69.064C370.9 68.0566 372.892 66.908 374.187 65.7386C375.483 64.5691 375.912 63.547 375.912 62.7245C375.912 61.902 375.483 60.8799 374.187 59.7104C372.892 58.5411 370.9 57.3924 368.262 56.385C362.999 54.3757 355.589 53.0892 347.299 53.0892C339.009 53.0892 331.599 54.3757 326.336 56.385C323.698 57.3924 321.706 58.5411 320.411 59.7104ZM324.848 52.4878C330.696 50.2549 338.634 48.9175 347.299 48.9175C355.964 48.9175 363.902 50.2549 369.75 52.4878C372.667 53.6015 375.171 54.9785 376.983 56.6138C378.794 58.2489 380.083 60.3103 380.083 62.7245C380.083 65.1387 378.794 67.2001 376.983 68.8352C375.171 70.4705 372.667 71.8475 369.75 72.9612C363.902 75.1942 355.964 76.5315 347.299 76.5315C338.634 76.5315 330.696 75.1942 324.848 72.9612C321.931 71.8475 319.427 70.4705 317.615 68.8352C315.804 67.2001 314.515 65.1387 314.515 62.7245C314.515 60.3103 315.804 58.2489 317.615 56.6138C319.427 54.9785 321.931 53.6015 324.848 52.4878Z" fill="#ADADAD"/>
<path id="Vector (Stroke)_2" fill-rule="evenodd" clip-rule="evenodd" d="M336.465 37.9316C334.805 37.3943 333.705 37.5341 332.993 37.9454C332.28 38.3566 331.61 39.2389 331.245 40.9457C330.88 42.6521 330.881 44.9512 331.327 47.7398C332.218 53.3019 334.81 60.3632 338.955 67.5422C343.099 74.7211 347.919 80.4959 352.29 84.0487C354.482 85.8299 356.472 86.9803 358.133 87.5174C359.793 88.0547 360.893 87.9149 361.605 87.5036C362.318 87.0924 362.988 86.2101 363.353 84.5033C363.718 82.7969 363.717 80.4978 363.271 77.7092C362.38 72.1471 359.788 65.0858 355.643 57.9068C351.499 50.7279 346.679 44.9531 342.308 41.4003C340.116 39.619 338.126 38.4687 336.465 37.9316ZM344.939 38.163C349.797 42.1111 354.924 48.3172 359.256 55.821C363.589 63.3248 366.399 70.8682 367.39 77.0493C367.884 80.1322 367.943 82.9894 367.433 85.3758C366.922 87.762 365.782 89.9093 363.691 91.1164C361.6 92.3235 359.17 92.2376 356.849 91.4865C354.527 90.7354 352.082 89.2552 349.659 87.286C344.801 83.3378 339.674 77.1318 335.342 69.628C331.009 62.1242 328.199 54.5808 327.208 48.3997C326.714 45.3168 326.655 42.4596 327.165 40.0731C327.676 37.687 328.816 35.5397 330.907 34.3326C332.998 33.1255 335.428 33.2114 337.749 33.9624C340.071 34.7136 342.516 36.1938 344.939 38.163Z" fill="#ADADAD"/>
<path id="Vector (Stroke)_3" fill-rule="evenodd" clip-rule="evenodd" d="M363.353 40.9457C362.988 39.2389 362.318 38.3566 361.605 37.9453C360.893 37.5341 359.793 37.3943 358.133 37.9315C356.473 38.4687 354.482 39.619 352.29 41.4003C347.919 44.9531 343.099 50.7279 338.955 57.9068C334.81 65.0858 332.219 72.1471 331.327 77.7092C330.881 80.4978 330.88 82.7968 331.245 84.5033C331.61 86.21 332.28 87.0924 332.993 87.5036C333.705 87.9149 334.805 88.0546 336.465 87.5174C338.126 86.9803 340.116 85.8299 342.308 84.0487C346.679 80.4959 351.499 74.7211 355.644 67.5422C359.788 60.3632 362.38 53.3019 363.271 47.7398C363.717 44.9511 363.718 42.6521 363.353 40.9457ZM367.39 48.3997C366.4 54.5808 363.589 62.1242 359.256 69.628C354.924 77.1318 349.797 83.3378 344.939 87.286C342.516 89.2552 340.071 90.7354 337.749 91.4865C335.428 92.2376 332.998 92.3235 330.907 91.1164C328.816 89.9093 327.676 87.762 327.165 85.3758C326.655 82.9894 326.714 80.1322 327.208 77.0492C328.199 70.8682 331.01 63.3248 335.342 55.821C339.674 48.3172 344.801 42.1111 349.659 38.163C352.082 36.1938 354.527 34.7136 356.849 33.9624C359.17 33.2114 361.6 33.1255 363.691 34.3326C365.782 35.5397 366.922 37.687 367.433 40.0731C367.943 42.4596 367.884 45.3168 367.39 48.3997Z" fill="#ADADAD"/>
</g>
</g>
</g>
<g id="stack3">
<g id="screnn_background_3" filter="url(#filter2_bd_682_14)">
<mask id="path-14-inside-3_682_14" fill="white">
<path d="M365 308C365 305.239 367.239 303 370 303H451.776C454.538 303 456.776 305.239 456.776 308V389.776C456.776 392.538 454.538 394.776 451.776 394.776H370C367.239 394.776 365 392.538 365 389.776V308Z"/>
</mask>
<path d="M365 308C365 305.239 367.239 303 370 303H451.776C454.538 303 456.776 305.239 456.776 308V389.776C456.776 392.538 454.538 394.776 451.776 394.776H370C367.239 394.776 365 392.538 365 389.776V308Z" fill="white" fill-opacity="0.15" shape-rendering="crispEdges"/>
<path d="M365 308C365 305.239 367.239 303 370 303H451.776C454.538 303 456.776 305.239 456.776 308V389.776C456.776 392.538 454.538 394.776 451.776 394.776H370C367.239 394.776 365 392.538 365 389.776V308Z" stroke="white" stroke-opacity="0.07" stroke-width="2" shape-rendering="crispEdges" mask="url(#path-14-inside-3_682_14)"/>
</g>
<path id="e-icon" fill-rule="evenodd" clip-rule="evenodd" d="M383.772 349.931C383.772 365.482 396.38 378.09 411.931 378.09C427.482 378.09 440.09 365.482 440.09 349.931C440.09 334.38 427.482 321.772 411.931 321.772C396.38 321.772 383.772 334.38 383.772 349.931ZM404.89 338.198H400.198V361.664H404.89V338.198ZM409.583 338.198H423.66V342.89H409.583V338.198ZM423.66 347.583H409.583V352.275H423.66V347.583ZM409.583 356.972H423.66V361.664H409.583V356.972Z" fill="#ADADAD"/>
</g>
<g id="stack2">
<g id="screnn_background_4" filter="url(#filter3_bd_682_14)">
<mask id="path-16-inside-4_682_14" fill="white">
<path d="M871 147C871 144.239 873.239 142 876 142H957.776C960.538 142 962.776 144.239 962.776 147V228.776C962.776 231.538 960.538 233.776 957.776 233.776H876C873.239 233.776 871 231.538 871 228.776V147Z"/>
</mask>
<path d="M871 147C871 144.239 873.239 142 876 142H957.776C960.538 142 962.776 144.239 962.776 147V228.776C962.776 231.538 960.538 233.776 957.776 233.776H876C873.239 233.776 871 231.538 871 228.776V147Z" fill="white" fill-opacity="0.15" shape-rendering="crispEdges"/>
<path d="M871 147C871 144.239 873.239 142 876 142H957.776C960.538 142 962.776 144.239 962.776 147V228.776C962.776 231.538 960.538 233.776 957.776 233.776H876C873.239 233.776 871 231.538 871 228.776V147Z" stroke="white" stroke-opacity="0.07" stroke-width="2" shape-rendering="crispEdges" mask="url(#path-16-inside-4_682_14)"/>
</g>
<g id="Group 90">
<path id="Vector_7" d="M888.127 186.96C888.127 197.978 894.53 207.499 903.814 212.011L890.537 175.632C888.945 179.197 888.124 183.057 888.127 186.96V186.96ZM934.752 185.556C934.752 182.116 933.516 179.733 932.456 177.879C931.045 175.586 929.723 173.645 929.723 171.352C929.723 168.793 931.663 166.412 934.397 166.412C934.52 166.412 934.637 166.427 934.758 166.434C929.805 161.897 923.208 159.127 915.961 159.127C906.237 159.127 897.682 164.116 892.705 171.673C893.358 171.692 893.974 171.706 894.496 171.706C897.408 171.706 901.914 171.352 901.914 171.352C903.415 171.264 903.592 173.468 902.093 173.645C902.093 173.645 900.585 173.823 898.907 173.911L909.043 204.06L915.135 185.791L910.798 173.91C909.299 173.822 907.879 173.645 907.879 173.645C906.379 173.557 906.555 171.263 908.055 171.352C908.055 171.352 912.652 171.705 915.387 171.705C918.297 171.705 922.805 171.352 922.805 171.352C924.306 171.263 924.483 173.467 922.983 173.645C922.983 173.645 921.472 173.822 919.797 173.91L929.856 203.831L932.632 194.554C933.836 190.704 934.752 187.938 934.752 185.556V185.556Z" fill="#ADADAD"/>
<path id="Vector_8" d="M916.45 189.395L908.098 213.662C910.652 214.414 913.3 214.796 915.961 214.796C919.203 214.796 922.311 214.235 925.204 213.218C925.127 213.097 925.061 212.968 925.006 212.835L916.45 189.395ZM940.385 173.606C940.505 174.493 940.572 175.445 940.572 176.468C940.572 179.293 940.045 182.468 938.456 186.438L929.954 211.02C938.229 206.194 943.795 197.229 943.795 186.96C943.802 182.293 942.629 177.699 940.385 173.606V173.606Z" fill="#ADADAD"/>
<path id="Vector_9" d="M915.961 154.515C898.071 154.515 883.515 169.07 883.515 186.96C883.515 204.853 898.07 219.408 915.961 219.408C933.851 219.408 948.409 204.853 948.409 186.96C948.409 169.07 933.851 154.515 915.961 154.515ZM915.961 217.92C898.891 217.92 885.003 204.031 885.003 186.96C885.003 169.891 898.891 156.003 915.961 156.003C933.031 156.003 946.918 169.891 946.918 186.96C946.918 204.031 933.03 217.92 915.961 217.92Z" fill="#ADADAD"/>
</g>
</g>
<g id="stack1">
<g id="screnn_background_5" filter="url(#filter4_bd_682_14)">
<mask id="path-20-inside-5_682_14" fill="white">
<path d="M21 167C21 164.239 23.2386 162 26 162H107.776C110.538 162 112.776 164.239 112.776 167V248.776C112.776 251.538 110.538 253.776 107.776 253.776H26C23.2386 253.776 21 251.538 21 248.776V167Z"/>
</mask>
<path d="M21 167C21 164.239 23.2386 162 26 162H107.776C110.538 162 112.776 164.239 112.776 167V248.776C112.776 251.538 110.538 253.776 107.776 253.776H26C23.2386 253.776 21 251.538 21 248.776V167Z" fill="white" fill-opacity="0.15" shape-rendering="crispEdges"/>
<path d="M21 167C21 164.239 23.2386 162 26 162H107.776C110.538 162 112.776 164.239 112.776 167V248.776C112.776 251.538 110.538 253.776 107.776 253.776H26C23.2386 253.776 21 251.538 21 248.776V167Z" stroke="white" stroke-opacity="0.07" stroke-width="2" shape-rendering="crispEdges" mask="url(#path-20-inside-5_682_14)"/>
</g>
<g id="Group 68">
<path id="Vector_10" d="M95.0895 178.687H38.6865C38.1342 178.687 37.6865 179.134 37.6865 179.687V236.09C37.6865 236.642 38.1342 237.09 38.6865 237.09H95.0895C95.6418 237.09 96.0895 236.642 96.0895 236.09V179.687C96.0895 179.134 95.6418 178.687 95.0895 178.687Z" fill="#ADADAD"/>
<path id="Vector_11" d="M78.4351 225.404C79.5188 227.164 80.9289 228.457 83.4227 228.457C85.5176 228.457 86.8559 227.416 86.8559 225.978C86.8559 224.254 85.4809 223.643 83.175 222.641L81.911 222.102C78.2625 220.556 75.8388 218.62 75.8388 214.528C75.8388 210.758 78.728 207.888 83.2433 207.888C86.4579 207.888 88.769 209 90.4344 211.913L86.4972 214.426C85.6304 212.881 84.6952 212.272 83.2433 212.272C81.7624 212.272 80.8238 213.206 80.8238 214.426C80.8238 215.934 81.7633 216.544 83.9325 217.478L85.1965 218.017C89.4923 219.848 91.9178 221.715 91.9178 225.913C91.9178 230.439 88.3419 232.918 83.5397 232.918C78.8442 232.918 75.8106 230.693 74.3263 227.778L78.4351 225.404ZM60.5745 225.84C61.3687 227.241 62.0913 228.425 63.8284 228.425C65.4895 228.425 66.5374 227.779 66.5374 225.267V208.175H71.5933V225.335C71.5933 230.54 68.5239 232.909 64.0436 232.909C59.9954 232.909 57.6511 230.826 56.4589 228.317L60.5745 225.84Z" fill="black"/>
</g>
</g>
</g>
<g id="dots">
<circle id="point" cx="90.1818" cy="84.1818" r="3.18182" fill="#5E604F" fill-opacity="0.27"/>
<circle id="point_2" cx="104.5" cy="84.1818" r="3.18182" fill="#5E604F" fill-opacity="0.27"/>
<circle id="point_3" cx="118.818" cy="84.1818" r="3.18182" fill="#5E604F" fill-opacity="0.27"/>
</g>
</g>
<defs>
<filter id="filter0_bd_682_14" x="492" y="145" width="151.776" height="151.776" filterUnits="userSpaceOnUse" color-interpolation-filters="sRGB">
<feFlood flood-opacity="0" result="BackgroundImageFix"/>
<feGaussianBlur in="BackgroundImageFix" stdDeviation="5.5"/>
<feComposite in2="SourceAlpha" operator="in" result="effect1_backgroundBlur_682_14"/>
<feColorMatrix in="SourceAlpha" type="matrix" values="0 0 0 0 0 0 0 0 0 0 0 0 0 0 0 0 0 0 127 0" result="hardAlpha"/>
<feOffset dx="9" dy="13"/>
<feGaussianBlur stdDeviation="15"/>
<feComposite in2="hardAlpha" operator="out"/>
<feColorMatrix type="matrix" values="0 0 0 0 0 0 0 0 0 0 0 0 0 0 0 0 0 0 0.25 0"/>
<feBlend mode="normal" in2="effect1_backgroundBlur_682_14" result="effect2_dropShadow_682_14"/>
<feBlend mode="normal" in="SourceGraphic" in2="effect2_dropShadow_682_14" result="shape"/>
</filter>
<filter id="filter1_bd_682_14" x="281" y="0" width="151.776" height="151.776" filterUnits="userSpaceOnUse" color-interpolation-filters="sRGB">
<feFlood flood-opacity="0" result="BackgroundImageFix"/>
<feGaussianBlur in="BackgroundImageFix" stdDeviation="5.5"/>
<feComposite in2="SourceAlpha" operator="in" result="effect1_backgroundBlur_682_14"/>
<feColorMatrix in="SourceAlpha" type="matrix" values="0 0 0 0 0 0 0 0 0 0 0 0 0 0 0 0 0 0 127 0" result="hardAlpha"/>
<feOffset dx="9" dy="13"/>
<feGaussianBlur stdDeviation="15"/>
<feComposite in2="hardAlpha" operator="out"/>
<feColorMatrix type="matrix" values="0 0 0 0 0 0 0 0 0 0 0 0 0 0 0 0 0 0 0.25 0"/>
<feBlend mode="normal" in2="effect1_backgroundBlur_682_14" result="effect2_dropShadow_682_14"/>
<feBlend mode="normal" in="SourceGraphic" in2="effect2_dropShadow_682_14" result="shape"/>
</filter>
<filter id="filter2_bd_682_14" x="344" y="286" width="151.776" height="151.776" filterUnits="userSpaceOnUse" color-interpolation-filters="sRGB">
<feFlood flood-opacity="0" result="BackgroundImageFix"/>
<feGaussianBlur in="BackgroundImageFix" stdDeviation="5.5"/>
<feComposite in2="SourceAlpha" operator="in" result="effect1_backgroundBlur_682_14"/>
<feColorMatrix in="SourceAlpha" type="matrix" values="0 0 0 0 0 0 0 0 0 0 0 0 0 0 0 0 0 0 127 0" result="hardAlpha"/>
<feOffset dx="9" dy="13"/>
<feGaussianBlur stdDeviation="15"/>
<feComposite in2="hardAlpha" operator="out"/>
<feColorMatrix type="matrix" values="0 0 0 0 0 0 0 0 0 0 0 0 0 0 0 0 0 0 0.25 0"/>
<feBlend mode="normal" in2="effect1_backgroundBlur_682_14" result="effect2_dropShadow_682_14"/>
<feBlend mode="normal" in="SourceGraphic" in2="effect2_dropShadow_682_14" result="shape"/>
</filter>
<filter id="filter3_bd_682_14" x="850" y="125" width="151.776" height="151.776" filterUnits="userSpaceOnUse" color-interpolation-filters="sRGB">
<feFlood flood-opacity="0" result="BackgroundImageFix"/>
<feGaussianBlur in="BackgroundImageFix" stdDeviation="5.5"/>
<feComposite in2="SourceAlpha" operator="in" result="effect1_backgroundBlur_682_14"/>
<feColorMatrix in="SourceAlpha" type="matrix" values="0 0 0 0 0 0 0 0 0 0 0 0 0 0 0 0 0 0 127 0" result="hardAlpha"/>
<feOffset dx="9" dy="13"/>
<feGaussianBlur stdDeviation="15"/>
<feComposite in2="hardAlpha" operator="out"/>
<feColorMatrix type="matrix" values="0 0 0 0 0 0 0 0 0 0 0 0 0 0 0 0 0 0 0.25 0"/>
<feBlend mode="normal" in2="effect1_backgroundBlur_682_14" result="effect2_dropShadow_682_14"/>
<feBlend mode="normal" in="SourceGraphic" in2="effect2_dropShadow_682_14" result="shape"/>
</filter>
<filter id="filter4_bd_682_14" x="0" y="145" width="151.776" height="151.776" filterUnits="userSpaceOnUse" color-interpolation-filters="sRGB">
<feFlood flood-opacity="0" result="BackgroundImageFix"/>
<feGaussianBlur in="BackgroundImageFix" stdDeviation="5.5"/>
<feComposite in2="SourceAlpha" operator="in" result="effect1_backgroundBlur_682_14"/>
<feColorMatrix in="SourceAlpha" type="matrix" values="0 0 0 0 0 0 0 0 0 0 0 0 0 0 0 0 0 0 127 0" result="hardAlpha"/>
<feOffset dx="9" dy="13"/>
<feGaussianBlur stdDeviation="15"/>
<feComposite in2="hardAlpha" operator="out"/>
<feColorMatrix type="matrix" values="0 0 0 0 0 0 0 0 0 0 0 0 0 0 0 0 0 0 0.25 0"/>
<feBlend mode="normal" in2="effect1_backgroundBlur_682_14" result="effect2_dropShadow_682_14"/>
<feBlend mode="normal" in="SourceGraphic" in2="effect2_dropShadow_682_14" result="shape"/>
</filter>
<linearGradient id="paint0_linear_682_14" x1="492.15" y1="63" x2="492.15" y2="346.057" gradientUnits="userSpaceOnUse">
<stop stop-color="#DAF439" stop-opacity="0.09"/>
<stop offset="1" stop-color="#13140E" stop-opacity="0"/>
</linearGradient>
<linearGradient id="paint1_linear_682_14" x1="511.309" y1="191.662" x2="511.309" y2="513.318" gradientUnits="userSpaceOnUse">
<stop stop-color="white" stop-opacity="0.29"/>
<stop offset="1" stop-opacity="0"/>
</linearGradient>
</defs>
</svg>
