<svg width="20" height="20" viewBox="0 0 24 24" fill="none" xmlns="http://www.w3.org/2000/svg">
<path d="M9.68542 11.4538C9.68542 11.4538 11.9557 11.2813 11.9557 8.56485C11.9557 5.85062 10.4159 4.51263 8.06244 4.51263L0 4.49988V19.4998H8.24994C8.24994 19.4998 12.3749 19.6303 12.3749 14.9998C12.3749 14.9998 12.6779 11.4538 9.68542 11.4538ZM2.99998 6.74986H7.12494C7.12494 6.74986 8.53643 6.77311 8.53643 8.6031C8.53643 10.4998 7.12494 10.4998 7.12494 10.4998H2.99998V6.74986ZM7.49994 17.2498H2.99998V12.7498H7.49994C7.49994 12.7498 9.74992 12.7731 9.74992 14.9998C9.74992 17.2265 7.82394 17.2498 7.49994 17.2498Z" fill="#DAF439"/>
<path d="M18.7499 8.25012C13.1152 8.25012 13.125 13.8751 13.125 13.8751C13.125 13.8751 12.75 19.5 18.7499 19.5C18.7499 19.5 23.9999 19.5 23.9999 15.0001H20.9999C20.9999 15.0001 20.9999 17.2501 18.7499 17.2501C18.7499 17.2501 16.5 17.2501 16.5 14.2501C16.5 14.2501 22.4999 14.2501 23.9999 14.2501C23.9999 12.7501 23.9999 8.25012 18.7499 8.25012ZM16.5 12.7501C16.5 12.7501 16.4505 10.5001 18.7499 10.5001C21.0487 10.5001 20.9999 12.7501 20.9999 12.7501H16.5Z" fill="#DAF439"/>
<path d="M21.7503 6H15.7504V7.49999H21.7503V6Z" fill="#DAF439"/>
</svg>
