<svg width="94" height="72" viewBox="0 0 94 72" fill="none" xmlns="http://www.w3.org/2000/svg">
<path d="M25.0319 55.7375C25.952 56.3277 25.952 57.6723 25.0319 58.2625L9.05992 68.5086C8.06159 69.149 6.75 68.4321 6.75 67.246L6.75 46.754C6.75 45.5679 8.06159 44.851 9.05992 45.4914L25.0319 55.7375Z" fill="url(#paint0_linear_315_12)"/>
<path d="M69.8739 58.2484C68.9828 57.6547 68.9828 56.3453 69.8739 55.7516L85.1684 45.5629C86.1652 44.8988 87.5 45.6134 87.5 46.8112V67.1888C87.5 68.3866 86.1652 69.1012 85.1684 68.4371L69.8739 58.2484Z" fill="url(#paint1_linear_315_12)"/>
<path d="M81.6961 0.640806L47.3289 23.06C47.2632 23.1029 47.1785 23.1034 47.1123 23.0613L11.8757 0.649618C11.8665 0.643753 11.8566 0.638556 11.8465 0.634284C10.2532 -0.0424438 9.38038 -0.107554 7.89761 0.633974C7.88867 0.638445 7.87971 0.643812 7.87157 0.649604C7.32431 1.03875 7.1493 1.32313 7.00598 1.88992C7.002 1.90564 7 1.92201 7 1.93823V21.8547C7 21.8802 7.00502 21.9059 7.01463 21.9296C7.57235 23.3026 8.19196 23.923 9.65193 24.8277L44.1131 47.3083C44.1224 47.3143 44.1324 47.3197 44.1426 47.3241C46.1785 48.211 47.3844 48.2397 49.4172 47.3235C49.4262 47.3195 49.4351 47.3147 49.4434 47.3094L84.3481 24.8277C86.0923 23.8815 86.6558 23.2202 86.9937 21.918C86.9979 21.9018 87 21.8849 87 21.8682V1.94921C87 1.92579 86.9959 1.90242 86.9877 1.88047C86.811 1.40686 86.6304 1.13776 86.1376 0.661614C86.1235 0.647929 86.1067 0.636058 86.0891 0.627174C84.3787 -0.237339 83.4121 -0.184672 81.6961 0.640806Z" fill="url(#paint2_linear_315_12)"/>
<defs>
<linearGradient id="paint0_linear_315_12" x1="27" y1="57" x2="0" y2="57" gradientUnits="userSpaceOnUse">
<stop stop-color="#A3A3A3"/>
<stop offset="1" stop-color="#F8F8F8"/>
</linearGradient>
<linearGradient id="paint1_linear_315_12" x1="68" y1="57" x2="94" y2="57" gradientUnits="userSpaceOnUse">
<stop stop-color="#ACACAC"/>
<stop offset="1" stop-color="#939393"/>
</linearGradient>
<linearGradient id="paint2_linear_315_12" x1="47" y1="0" x2="47" y2="48" gradientUnits="userSpaceOnUse">
<stop stop-color="#D6D6D6"/>
<stop offset="0.0001" stop-color="#D6D6D6"/>
<stop offset="1" stop-color="white"/>
</linearGradient>
</defs>
</svg>
